<svg width="14" height="14" viewBox="0 0 14 14" fill="none" xmlns="http://www.w3.org/2000/svg">
<path d="M8.30738 10.6698C8.20515 10.6698 8.10293 10.6321 8.02223 10.5514C7.86621 10.3954 7.86621 10.1371 8.02223 9.98112L11.0028 7.00054L8.02223 4.01995C7.86621 3.86393 7.86621 3.60568 8.02223 3.44966C8.17825 3.29364 8.4365 3.29364 8.59252 3.44966L11.8583 6.71539C12.0143 6.87141 12.0143 7.12966 11.8583 7.28568L8.59252 10.5514C8.51182 10.6321 8.4096 10.6698 8.30738 10.6698Z" fill="#292D32"/>
<path d="M11.4817 7.40406H2.42695C2.20636 7.40406 2.02344 7.22114 2.02344 7.00055C2.02344 6.77997 2.20636 6.59705 2.42695 6.59705H11.4817C11.7023 6.59705 11.8852 6.77997 11.8852 7.00055C11.8852 7.22114 11.7023 7.40406 11.4817 7.40406Z" fill="#292D32"/>
</svg>
