<svg width="13" height="15" viewBox="0 0 13 15" fill="none" xmlns="http://www.w3.org/2000/svg">
<path d="M8.11473 14.1373H2.84089C1.62286 14.1373 0.631958 13.1464 0.631958 11.9284V4.44561C0.631958 3.22757 1.62286 2.23667 2.84089 2.23667H8.11473C9.33276 2.23667 10.3237 3.22757 10.3237 4.44561V11.9284C10.3237 13.1464 9.33276 14.1373 8.11473 14.1373ZM2.84089 3.34114C2.23192 3.34114 1.73643 3.83663 1.73643 4.44561V11.9284C1.73643 12.5374 2.23192 13.0328 2.84089 13.0328H8.11473C8.72371 13.0328 9.2192 12.5374 9.2192 11.9284V4.44561C9.2192 3.83663 8.72371 3.34114 8.11473 3.34114H2.84089ZM12.5326 10.5478V2.20906C12.5326 0.991023 11.5417 0.00012207 10.3237 0.00012207H4.19387C3.88884 0.00012207 3.64163 0.24733 3.64163 0.552356C3.64163 0.857383 3.88884 1.10459 4.19387 1.10459H10.3237C10.9326 1.10459 11.4281 1.60008 11.4281 2.20906V10.5478C11.4281 10.8528 11.6753 11.1 11.9804 11.1C12.2854 11.1 12.5326 10.8528 12.5326 10.5478Z" fill="#8A74F9"/>
</svg>
