<svg width="18" height="18" viewBox="0 0 18 18" fill="none" xmlns="http://www.w3.org/2000/svg">
<path d="M11.25 17.0625H6.75C2.6775 17.0625 0.9375 15.3225 0.9375 11.25V6.75C0.9375 2.6775 2.6775 0.9375 6.75 0.9375H8.25C8.5575 0.9375 8.8125 1.1925 8.8125 1.5C8.8125 1.8075 8.5575 2.0625 8.25 2.0625H6.75C3.2925 2.0625 2.0625 3.2925 2.0625 6.75V11.25C2.0625 14.7075 3.2925 15.9375 6.75 15.9375H11.25C14.7075 15.9375 15.9375 14.7075 15.9375 11.25V9.75C15.9375 9.4425 16.1925 9.1875 16.5 9.1875C16.8075 9.1875 17.0625 9.4425 17.0625 9.75V11.25C17.0625 15.3225 15.3225 17.0625 11.25 17.0625Z" fill="#8A74F9"/>
<path d="M6.375 13.2675C5.9175 13.2675 5.4975 13.1025 5.19 12.8025C4.8225 12.435 4.665 11.9025 4.7475 11.34L5.07 9.08248C5.13 8.64748 5.415 8.08498 5.7225 7.77748L11.6325 1.86748C13.125 0.374983 14.64 0.374983 16.1325 1.86748C16.95 2.68498 17.3175 3.51748 17.2425 4.34998C17.175 5.02498 16.815 5.68498 16.1325 6.35998L10.2225 12.27C9.915 12.5775 9.3525 12.8625 8.9175 12.9225L6.66 13.245C6.5625 13.2675 6.465 13.2675 6.375 13.2675ZM12.4275 2.66248L6.5175 8.57248C6.375 8.71498 6.21 9.04498 6.18 9.23998L5.8575 11.4975C5.8275 11.715 5.8725 11.895 5.985 12.0075C6.0975 12.12 6.2775 12.165 6.495 12.135L8.7525 11.8125C8.9475 11.7825 9.285 11.6175 9.42 11.475L15.33 5.56498C15.8175 5.07748 16.0725 4.64248 16.11 4.23748C16.155 3.74998 15.9 3.23248 15.33 2.65498C14.13 1.45498 13.305 1.79248 12.4275 2.66248Z" fill="#8A74F9"/>
<path d="M14.8875 7.37252C14.835 7.37252 14.7825 7.36502 14.7375 7.35002C12.765 6.79502 11.1975 5.22752 10.6425 3.25502C10.56 2.95502 10.7325 2.64752 11.0325 2.55752C11.3325 2.47502 11.64 2.64752 11.7225 2.94752C12.1725 4.54502 13.44 5.81252 15.0375 6.26252C15.3375 6.34502 15.51 6.66002 15.4275 6.96002C15.36 7.21502 15.135 7.37252 14.8875 7.37252Z" fill="#8A74F9"/>
</svg>
