<svg width="100" height="35" viewBox="0 0 100 35" fill="none" xmlns="http://www.w3.org/2000/svg">
<rect width="100" height="35" rx="6" fill="#8A74F9"/>
<path d="M12.1613 14.224C12.1613 14.144 12.1853 14.08 12.2333 14.032C12.2893 13.984 12.3573 13.96 12.4373 13.96H12.9053C12.9853 13.96 13.0493 13.984 13.0973 14.032C13.1533 14.08 13.1813 14.144 13.1813 14.224V14.872C13.1813 14.944 13.1533 15.004 13.0973 15.052C13.0413 15.1 12.9773 15.124 12.9053 15.124H12.4373C12.3573 15.124 12.2893 15.1 12.2333 15.052C12.1853 15.004 12.1613 14.944 12.1613 14.872V14.224ZM14.1173 14.224C14.1173 14.144 14.1453 14.08 14.2013 14.032C14.2653 13.984 14.3333 13.96 14.4053 13.96H14.8733C14.9453 13.96 15.0093 13.984 15.0653 14.032C15.1213 14.08 15.1493 14.144 15.1493 14.224V14.872C15.1493 14.944 15.1213 15.004 15.0653 15.052C15.0093 15.1 14.9453 15.124 14.8733 15.124H14.4053C14.3333 15.124 14.2653 15.1 14.2013 15.052C14.1453 15.004 14.1173 14.944 14.1173 14.872V14.224ZM11.1293 19.192C11.1293 18.352 11.3653 17.688 11.8373 17.2C12.3093 16.712 13.0213 16.468 13.9733 16.468C14.2933 16.468 14.6053 16.484 14.9093 16.516C15.2133 16.54 15.4693 16.584 15.6773 16.648C15.7573 16.672 15.8053 16.7 15.8213 16.732C15.8453 16.756 15.8573 16.8 15.8573 16.864V20.044C15.8573 20.148 15.8573 20.272 15.8573 20.416C15.8573 20.552 15.8533 20.696 15.8453 20.848C15.8453 20.992 15.8413 21.136 15.8333 21.28C15.8333 21.416 15.8293 21.54 15.8213 21.652C15.8213 21.74 15.7973 21.8 15.7493 21.832C15.7013 21.856 15.6373 21.876 15.5573 21.892C15.2773 21.94 15.0093 21.972 14.7533 21.988C14.5053 21.996 14.2653 22 14.0333 22H13.8653C12.9693 22 12.2893 21.792 11.8253 21.376C11.3613 20.96 11.1293 20.332 11.1293 19.492V19.192ZM12.1373 19.372C12.1373 19.94 12.2773 20.352 12.5573 20.608C12.8373 20.864 13.2933 20.992 13.9253 20.992C14.1093 20.992 14.2653 20.992 14.3933 20.992C14.5213 20.984 14.6733 20.968 14.8493 20.944V17.464C14.6973 17.448 14.5453 17.436 14.3933 17.428C14.2413 17.42 14.0613 17.416 13.8533 17.416C13.2773 17.416 12.8453 17.564 12.5573 17.86C12.2773 18.156 12.1373 18.58 12.1373 19.132V19.372ZM17.3938 21.184C17.3938 21.12 17.4178 21.068 17.4658 21.028C17.5138 20.988 17.5698 20.968 17.6338 20.968H20.9098L20.8978 19.492C20.8818 18.788 20.7058 18.264 20.3698 17.92C20.0338 17.576 19.4858 17.404 18.7258 17.404C18.6378 17.404 18.5098 17.408 18.3418 17.416C18.1818 17.416 18.0418 17.424 17.9218 17.44C17.7618 17.456 17.6818 17.4 17.6818 17.272V16.78C17.6818 16.716 17.6978 16.664 17.7298 16.624C17.7698 16.584 17.8338 16.56 17.9218 16.552C18.1298 16.52 18.3258 16.5 18.5098 16.492C18.7018 16.484 18.8418 16.48 18.9298 16.48C19.4658 16.48 19.9218 16.552 20.2978 16.696C20.6738 16.84 20.9778 17.044 21.2098 17.308C21.4418 17.572 21.6098 17.884 21.7138 18.244C21.8258 18.604 21.8898 19 21.9058 19.432L21.9178 20.968H22.7098V22H17.6338C17.5698 22 17.5138 21.984 17.4658 21.952C17.4178 21.912 17.3938 21.86 17.3938 21.796V21.184ZM22.2329 21.124C22.2329 21.076 22.2729 21.04 22.3529 21.016C22.4329 20.984 22.5289 20.968 22.6409 20.968H23.4809C23.7129 20.968 23.8609 20.948 23.9249 20.908C23.9889 20.868 24.0209 20.744 24.0209 20.536C24.0209 20.256 24.0209 19.992 24.0209 19.744C24.0209 19.496 24.0209 19.248 24.0209 19C24.0209 18.752 24.0169 18.496 24.0089 18.232C24.0089 17.968 24.0049 17.68 23.9969 17.368C23.9969 17.304 24.0129 17.252 24.0449 17.212C24.0849 17.164 24.1369 17.14 24.2009 17.14H24.7769C24.8489 17.14 24.9049 17.164 24.9449 17.212C24.9849 17.252 25.0049 17.304 25.0049 17.368C25.0129 17.64 25.0169 17.868 25.0169 18.052C25.0249 18.236 25.0289 18.412 25.0289 18.58C25.0289 18.74 25.0289 18.908 25.0289 19.084C25.0289 19.252 25.0289 19.456 25.0289 19.696C25.0289 20.08 25.0249 20.436 25.0169 20.764C25.0169 21.092 25.0049 21.348 24.9809 21.532C24.9649 21.612 24.9369 21.68 24.8969 21.736C24.8649 21.792 24.8009 21.84 24.7049 21.88C24.6409 21.904 24.5529 21.924 24.4409 21.94C24.3289 21.948 24.2009 21.96 24.0569 21.976C23.9129 21.984 23.7649 21.992 23.6129 22C23.4609 22 23.3169 22 23.1809 22H22.6409C22.5289 22 22.4329 21.988 22.3529 21.964C22.2729 21.932 22.2329 21.888 22.2329 21.832V21.124ZM22.2809 23.38C22.2809 23.3 22.3089 23.236 22.3649 23.188C22.4129 23.14 22.4769 23.116 22.5569 23.116H23.0249C23.1049 23.116 23.1689 23.14 23.2169 23.188C23.2729 23.236 23.3009 23.3 23.3009 23.38V24.028C23.3009 24.092 23.2729 24.148 23.2169 24.196C23.1609 24.252 23.0969 24.28 23.0249 24.28H22.5569C22.4769 24.28 22.4129 24.252 22.3649 24.196C22.3089 24.148 22.2809 24.092 22.2809 24.028V23.38ZM24.2369 23.38C24.2369 23.3 24.2649 23.236 24.3209 23.188C24.3849 23.14 24.4529 23.116 24.5249 23.116H24.9929C25.0649 23.116 25.1289 23.14 25.1849 23.188C25.2409 23.236 25.2689 23.3 25.2689 23.38V24.028C25.2689 24.092 25.2409 24.148 25.1849 24.196C25.1289 24.252 25.0649 24.28 24.9929 24.28H24.5249C24.4529 24.28 24.3849 24.252 24.3209 24.196C24.2649 24.148 24.2369 24.092 24.2369 24.028V23.38ZM26.5696 21.184C26.5696 21.12 26.5936 21.068 26.6416 21.028C26.6896 20.988 26.7456 20.968 26.8096 20.968H30.0856L30.0736 19.492C30.0576 18.788 29.8816 18.264 29.5456 17.92C29.2096 17.576 28.6616 17.404 27.9016 17.404C27.8136 17.404 27.6856 17.408 27.5176 17.416C27.3576 17.416 27.2176 17.424 27.0976 17.44C26.9376 17.456 26.8576 17.4 26.8576 17.272V16.78C26.8576 16.716 26.8736 16.664 26.9056 16.624C26.9456 16.584 27.0096 16.56 27.0976 16.552C27.3056 16.52 27.5016 16.5 27.6856 16.492C27.8776 16.484 28.0176 16.48 28.1056 16.48C28.6416 16.48 29.0976 16.552 29.4736 16.696C29.8496 16.84 30.1536 17.044 30.3856 17.308C30.6176 17.572 30.7856 17.884 30.8896 18.244C31.0016 18.604 31.0656 19 31.0816 19.432L31.0936 20.968H31.8856V22H26.8096C26.7456 22 26.6896 21.984 26.6416 21.952C26.5936 21.912 26.5696 21.86 26.5696 21.796V21.184ZM34.3127 23.38C34.3127 23.3 34.3407 23.236 34.3967 23.188C34.4527 23.14 34.5167 23.116 34.5887 23.116H35.1047C35.1767 23.116 35.2407 23.14 35.2967 23.188C35.3527 23.236 35.3807 23.3 35.3807 23.38V24.028C35.3807 24.092 35.3527 24.148 35.2967 24.196C35.2407 24.252 35.1767 24.28 35.1047 24.28H34.5887C34.5167 24.28 34.4527 24.252 34.3967 24.196C34.3407 24.148 34.3127 24.092 34.3127 24.028V23.38ZM31.4087 21.124C31.4087 21.076 31.4487 21.04 31.5287 21.016C31.6087 20.984 31.7047 20.968 31.8167 20.968H37.3847L36.9527 19.936L36.6767 19.3C36.4127 18.692 36.0607 18.24 35.6207 17.944C35.1887 17.64 34.5967 17.488 33.8447 17.488C33.8127 17.488 33.7607 17.492 33.6887 17.5C33.6247 17.5 33.5487 17.504 33.4607 17.512C33.3807 17.52 33.2967 17.528 33.2087 17.536C33.1287 17.536 33.0567 17.54 32.9927 17.548C32.8167 17.564 32.7287 17.508 32.7287 17.38V16.888C32.7287 16.824 32.7447 16.776 32.7767 16.744C32.8087 16.704 32.8687 16.676 32.9567 16.66C33.1327 16.62 33.3287 16.592 33.5447 16.576C33.7687 16.56 33.9527 16.552 34.0967 16.552C34.4967 16.552 34.8727 16.592 35.2247 16.672C35.5767 16.744 35.9087 16.884 36.2207 17.092C36.5327 17.292 36.8207 17.572 37.0847 17.932C37.3487 18.284 37.5967 18.74 37.8287 19.3L37.9487 19.612L38.4527 20.896C38.4687 20.952 38.4807 21.008 38.4887 21.064C38.5047 21.12 38.5127 21.192 38.5127 21.28V21.712C38.5127 21.8 38.4887 21.872 38.4407 21.928C38.3927 21.976 38.3007 22 38.1647 22H31.8167C31.6967 22 31.6007 21.984 31.5287 21.952C31.4487 21.912 31.4087 21.872 31.4087 21.832V21.124ZM43.7902 14.224C43.7902 14.144 43.8142 14.08 43.8622 14.032C43.9182 13.984 43.9862 13.96 44.0662 13.96H44.5342C44.6142 13.96 44.6782 13.984 44.7262 14.032C44.7822 14.08 44.8102 14.144 44.8102 14.224V14.872C44.8102 14.944 44.7822 15.004 44.7262 15.052C44.6702 15.1 44.6062 15.124 44.5342 15.124H44.0662C43.9862 15.124 43.9182 15.1 43.8622 15.052C43.8142 15.004 43.7902 14.944 43.7902 14.872V14.224ZM45.7462 14.224C45.7462 14.144 45.7742 14.08 45.8302 14.032C45.8942 13.984 45.9622 13.96 46.0342 13.96H46.5022C46.5742 13.96 46.6382 13.984 46.6942 14.032C46.7502 14.08 46.7782 14.144 46.7782 14.224V14.872C46.7782 14.944 46.7502 15.004 46.6942 15.052C46.6382 15.1 46.5742 15.124 46.5022 15.124H46.0342C45.9622 15.124 45.8942 15.1 45.8302 15.052C45.7742 15.004 45.7462 14.944 45.7462 14.872V14.224ZM42.7582 19.192C42.7582 18.352 42.9942 17.688 43.4662 17.2C43.9382 16.712 44.6502 16.468 45.6022 16.468C45.9222 16.468 46.2342 16.484 46.5382 16.516C46.8422 16.54 47.0982 16.584 47.3062 16.648C47.3862 16.672 47.4342 16.7 47.4502 16.732C47.4742 16.756 47.4862 16.8 47.4862 16.864V20.044C47.4862 20.148 47.4862 20.272 47.4862 20.416C47.4862 20.552 47.4822 20.696 47.4742 20.848C47.4742 20.992 47.4702 21.136 47.4622 21.28C47.4622 21.416 47.4582 21.54 47.4502 21.652C47.4502 21.74 47.4262 21.8 47.3782 21.832C47.3302 21.856 47.2662 21.876 47.1862 21.892C46.9062 21.94 46.6382 21.972 46.3822 21.988C46.1342 21.996 45.8942 22 45.6622 22H45.4942C44.5982 22 43.9182 21.792 43.4542 21.376C42.9902 20.96 42.7582 20.332 42.7582 19.492V19.192ZM43.7662 19.372C43.7662 19.94 43.9062 20.352 44.1862 20.608C44.4662 20.864 44.9222 20.992 45.5542 20.992C45.7382 20.992 45.8942 20.992 46.0222 20.992C46.1502 20.984 46.3022 20.968 46.4782 20.944V17.464C46.3262 17.448 46.1742 17.436 46.0222 17.428C45.8702 17.42 45.6902 17.416 45.4822 17.416C44.9062 17.416 44.4742 17.564 44.1862 17.86C43.9062 18.156 43.7662 18.58 43.7662 19.132V19.372ZM48.0387 24.04C48.0387 23.928 48.1067 23.872 48.2427 23.872H48.4947C48.7587 23.872 48.9747 23.86 49.1427 23.836C49.3107 23.812 49.4467 23.76 49.5507 23.68C49.6547 23.6 49.7267 23.48 49.7667 23.32C49.8067 23.168 49.8267 22.96 49.8267 22.696V17.38C49.8267 17.316 49.8467 17.264 49.8867 17.224C49.9267 17.176 49.9787 17.152 50.0427 17.152H50.6307C50.6867 17.152 50.7347 17.176 50.7747 17.224C50.8147 17.264 50.8347 17.316 50.8347 17.38V20.968H51.9387V22H50.8227V22.768C50.8227 23.024 50.8067 23.26 50.7747 23.476C50.7427 23.692 50.6827 23.88 50.5947 24.04C50.4347 24.32 50.2107 24.516 49.9227 24.628C49.6427 24.74 49.2707 24.796 48.8067 24.796C48.7667 24.796 48.6787 24.792 48.5427 24.784C48.4147 24.776 48.3107 24.764 48.2307 24.748C48.1507 24.732 48.0987 24.708 48.0747 24.676C48.0507 24.652 48.0387 24.612 48.0387 24.556V24.04ZM51.4595 21.16C51.4595 21.096 51.4995 21.048 51.5795 21.016C51.6595 20.984 51.7555 20.968 51.8675 20.968H56.4875C56.5675 20.968 56.6835 20.968 56.8355 20.968C56.9875 20.968 57.1435 20.968 57.3035 20.968C57.4715 20.968 57.6315 20.968 57.7835 20.968C57.9355 20.96 58.0555 20.952 58.1435 20.944C58.1675 20.56 58.1795 20.172 58.1795 19.78C58.1795 19.348 58.1155 18.992 57.9875 18.712C57.8595 18.424 57.6795 18.2 57.4475 18.04C57.2155 17.872 56.9355 17.756 56.6075 17.692C56.2795 17.628 55.9155 17.596 55.5155 17.596C55.2755 17.596 55.0235 17.6 54.7595 17.608C54.5035 17.608 54.2635 17.608 54.0395 17.608C53.8155 17.608 53.6235 17.612 53.4635 17.62C53.3035 17.62 53.1995 17.62 53.1515 17.62C53.0155 17.62 52.9355 17.56 52.9115 17.44C52.9035 17.424 52.8995 17.384 52.8995 17.32C52.8995 17.248 52.8995 17.204 52.8995 17.188C52.8995 16.996 52.9155 16.812 52.9475 16.636C52.9795 16.46 53.0235 16.28 53.0795 16.096C53.1435 15.912 53.2195 15.72 53.3075 15.52C53.4035 15.32 53.5155 15.104 53.6435 14.872L54.5435 13.228C54.5835 13.164 54.6235 13.108 54.6635 13.06C54.7115 13.012 54.7795 12.988 54.8675 12.988H55.4315C55.4955 12.988 55.5395 13.004 55.5635 13.036C55.5955 13.06 55.6115 13.092 55.6115 13.132C55.6115 13.172 55.5995 13.216 55.5755 13.264L54.4475 15.4C54.3115 15.648 54.1955 15.892 54.0995 16.132C54.0115 16.372 53.9635 16.544 53.9555 16.648C54.3475 16.632 54.6715 16.62 54.9275 16.612C55.1835 16.604 55.4155 16.6 55.6235 16.6C56.8075 16.6 57.6955 16.852 58.2875 17.356C58.8875 17.852 59.1875 18.668 59.1875 19.804V20.008C59.1875 20.12 59.1835 20.256 59.1755 20.416C59.1755 20.568 59.1715 20.724 59.1635 20.884C59.1635 21.044 59.1555 21.2 59.1395 21.352C59.1315 21.496 59.1235 21.612 59.1155 21.7C59.0915 21.852 59.0035 21.932 58.8515 21.94C58.7235 21.956 58.5635 21.968 58.3715 21.976C58.1795 21.976 57.9715 21.98 57.7475 21.988C57.5315 21.996 57.3115 22 57.0875 22C56.8635 22 56.6555 22 56.4635 22H51.8675C51.7555 22 51.6595 21.984 51.5795 21.952C51.4995 21.912 51.4595 21.86 51.4595 21.796V21.16ZM62.1254 14.212C62.1254 14.132 62.1534 14.068 62.2094 14.02C62.2654 13.972 62.3294 13.948 62.4014 13.948H62.9294C63.0014 13.948 63.0614 13.972 63.1094 14.02C63.1654 14.068 63.1934 14.132 63.1934 14.212V14.86C63.1934 14.932 63.1654 14.992 63.1094 15.04C63.0614 15.088 62.9974 15.112 62.9174 15.112H62.4014C62.3214 15.112 62.2534 15.088 62.1974 15.04C62.1494 14.992 62.1254 14.932 62.1254 14.86V14.212ZM60.5774 21.184C60.5774 21.12 60.6014 21.068 60.6494 21.028C60.6974 20.988 60.7534 20.968 60.8174 20.968H64.0934L64.0814 19.492C64.0654 18.788 63.8894 18.264 63.5534 17.92C63.2174 17.576 62.6694 17.404 61.9094 17.404C61.8214 17.404 61.6934 17.408 61.5254 17.416C61.3654 17.416 61.2254 17.424 61.1054 17.44C60.9454 17.456 60.8654 17.4 60.8654 17.272V16.78C60.8654 16.716 60.8814 16.664 60.9134 16.624C60.9534 16.584 61.0174 16.56 61.1054 16.552C61.3134 16.52 61.5094 16.5 61.6934 16.492C61.8854 16.484 62.0254 16.48 62.1134 16.48C62.6494 16.48 63.1054 16.552 63.4814 16.696C63.8574 16.84 64.1614 17.044 64.3934 17.308C64.6254 17.572 64.7934 17.884 64.8974 18.244C65.0094 18.604 65.0734 19 65.0894 19.432L65.1014 20.968H65.8934V22H60.8174C60.7534 22 60.6974 21.984 60.6494 21.952C60.6014 21.912 60.5774 21.86 60.5774 21.796V21.184ZM66.1365 14.692C66.1365 14.612 66.1605 14.548 66.2085 14.5C66.2645 14.452 66.3325 14.428 66.4125 14.428H66.8805C66.9605 14.428 67.0245 14.452 67.0725 14.5C67.1285 14.548 67.1565 14.612 67.1565 14.692V15.34C67.1565 15.412 67.1285 15.472 67.0725 15.52C67.0165 15.568 66.9525 15.592 66.8805 15.592H66.4125C66.3325 15.592 66.2645 15.568 66.2085 15.52C66.1605 15.472 66.1365 15.412 66.1365 15.34V14.692ZM68.0925 14.692C68.0925 14.612 68.1205 14.548 68.1765 14.5C68.2405 14.452 68.3085 14.428 68.3805 14.428H68.8485C68.9205 14.428 68.9845 14.452 69.0405 14.5C69.0965 14.548 69.1245 14.612 69.1245 14.692V15.34C69.1245 15.412 69.0965 15.472 69.0405 15.52C68.9845 15.568 68.9205 15.592 68.8485 15.592H68.3805C68.3085 15.592 68.2405 15.568 68.1765 15.52C68.1205 15.472 68.0925 15.412 68.0925 15.34V14.692ZM65.4165 21.124C65.4165 21.076 65.4565 21.04 65.5365 21.016C65.6165 20.984 65.7125 20.968 65.8245 20.968H66.6645C66.8965 20.968 67.0445 20.948 67.1085 20.908C67.1725 20.868 67.2045 20.744 67.2045 20.536C67.2045 20.256 67.2045 19.992 67.2045 19.744C67.2045 19.496 67.2045 19.248 67.2045 19C67.2045 18.752 67.2005 18.496 67.1925 18.232C67.1925 17.968 67.1885 17.68 67.1805 17.368C67.1805 17.304 67.1965 17.252 67.2285 17.212C67.2685 17.164 67.3205 17.14 67.3845 17.14H67.9605C68.0325 17.14 68.0885 17.164 68.1285 17.212C68.1685 17.252 68.1885 17.304 68.1885 17.368C68.1965 17.64 68.2005 17.868 68.2005 18.052C68.2085 18.236 68.2125 18.412 68.2125 18.58C68.2125 18.74 68.2125 18.908 68.2125 19.084C68.2125 19.252 68.2125 19.456 68.2125 19.696C68.2125 20.08 68.2085 20.436 68.2005 20.764C68.2005 21.092 68.1885 21.348 68.1645 21.532C68.1485 21.612 68.1205 21.68 68.0805 21.736C68.0485 21.792 67.9845 21.84 67.8885 21.88C67.8245 21.904 67.7365 21.924 67.6245 21.94C67.5125 21.948 67.3845 21.96 67.2405 21.976C67.0965 21.984 66.9485 21.992 66.7965 22C66.6445 22 66.5005 22 66.3645 22H65.8245C65.7125 22 65.6165 21.988 65.5365 21.964C65.4565 21.932 65.4165 21.888 65.4165 21.832V21.124ZM71.734 24.04C71.734 23.928 71.802 23.872 71.938 23.872H72.19C72.454 23.872 72.67 23.86 72.838 23.836C73.006 23.812 73.142 23.76 73.246 23.68C73.35 23.6 73.422 23.48 73.462 23.32C73.502 23.168 73.522 22.96 73.522 22.696V17.38C73.522 17.316 73.542 17.264 73.582 17.224C73.622 17.176 73.674 17.152 73.738 17.152H74.326C74.382 17.152 74.43 17.176 74.47 17.224C74.51 17.264 74.53 17.316 74.53 17.38V20.968H75.634V22H74.518V22.768C74.518 23.024 74.502 23.26 74.47 23.476C74.438 23.692 74.378 23.88 74.29 24.04C74.13 24.32 73.906 24.516 73.618 24.628C73.338 24.74 72.966 24.796 72.502 24.796C72.462 24.796 72.374 24.792 72.238 24.784C72.11 24.776 72.006 24.764 71.926 24.748C71.846 24.732 71.794 24.708 71.77 24.676C71.746 24.652 71.734 24.612 71.734 24.556V24.04ZM73.51 14.692C73.51 14.612 73.538 14.548 73.594 14.5C73.65 14.452 73.714 14.428 73.786 14.428H74.314C74.386 14.428 74.446 14.452 74.494 14.5C74.55 14.548 74.578 14.612 74.578 14.692V15.34C74.578 15.412 74.55 15.472 74.494 15.52C74.446 15.568 74.382 15.592 74.302 15.592H73.786C73.706 15.592 73.638 15.568 73.582 15.52C73.534 15.472 73.51 15.412 73.51 15.34V14.692ZM75.5628 22C75.4348 22 75.3348 21.984 75.2628 21.952C75.1908 21.912 75.1548 21.872 75.1548 21.832V21.124C75.1548 21.076 75.1948 21.04 75.2748 21.016C75.3548 20.984 75.4508 20.968 75.5628 20.968H81.1308L80.6988 19.936L80.4228 19.3C80.1588 18.684 79.8068 18.228 79.3668 17.932C78.9348 17.636 78.3428 17.488 77.5908 17.488C77.5268 17.488 77.4028 17.496 77.2188 17.512C77.0348 17.52 76.8748 17.532 76.7388 17.548C76.5628 17.564 76.4748 17.508 76.4748 17.38V16.888C76.4748 16.824 76.4908 16.776 76.5228 16.744C76.5548 16.704 76.6148 16.676 76.7028 16.66C76.8708 16.62 77.0548 16.592 77.2548 16.576C77.4628 16.56 77.6588 16.552 77.8428 16.552C78.2428 16.552 78.6188 16.592 78.9708 16.672C79.3228 16.744 79.6548 16.884 79.9668 17.092C80.2788 17.292 80.5668 17.572 80.8308 17.932C81.0948 18.284 81.3428 18.74 81.5748 19.3L81.7068 19.612L82.1868 20.824C82.2268 20.888 82.2588 20.928 82.2828 20.944C82.3068 20.96 82.3508 20.968 82.4148 20.968H82.4988V22H75.5628ZM78.0588 23.38C78.0588 23.3 78.0868 23.236 78.1428 23.188C78.1988 23.14 78.2628 23.116 78.3348 23.116H78.8508C78.9228 23.116 78.9868 23.14 79.0428 23.188C79.0988 23.236 79.1268 23.3 79.1268 23.38V24.028C79.1268 24.092 79.0988 24.148 79.0428 24.196C78.9868 24.252 78.9228 24.28 78.8508 24.28H78.3348C78.2628 24.28 78.1988 24.252 78.1428 24.196C78.0868 24.148 78.0588 24.092 78.0588 24.028V23.38ZM82.022 21.124C82.022 21.076 82.062 21.04 82.142 21.016C82.222 20.984 82.318 20.968 82.43 20.968H87.998L87.566 19.936L87.29 19.3C87.026 18.692 86.674 18.24 86.234 17.944C85.802 17.64 85.21 17.488 84.458 17.488C84.426 17.488 84.374 17.492 84.302 17.5C84.238 17.5 84.162 17.504 84.074 17.512C83.994 17.52 83.91 17.528 83.822 17.536C83.742 17.536 83.67 17.54 83.606 17.548C83.43 17.564 83.342 17.508 83.342 17.38V16.888C83.342 16.824 83.358 16.776 83.39 16.744C83.422 16.704 83.482 16.676 83.57 16.66C83.746 16.62 83.942 16.592 84.158 16.576C84.382 16.56 84.566 16.552 84.71 16.552C85.11 16.552 85.486 16.592 85.838 16.672C86.19 16.744 86.522 16.884 86.834 17.092C87.146 17.292 87.434 17.572 87.698 17.932C87.962 18.284 88.21 18.74 88.442 19.3L88.562 19.612L89.066 20.896C89.082 20.952 89.094 21.008 89.102 21.064C89.118 21.12 89.126 21.192 89.126 21.28V21.712C89.126 21.8 89.102 21.872 89.054 21.928C89.006 21.976 88.914 22 88.778 22H82.43C82.31 22 82.214 21.984 82.142 21.952C82.062 21.912 82.022 21.872 82.022 21.832V21.124Z" fill="#FCFCFC"/>
</svg>
