<svg width="16" height="16" viewBox="0 0 16 16" fill="none" xmlns="http://www.w3.org/2000/svg">
<path d="M6.52 14.4201C7.30666 14.4201 8.42 13.8667 9.3 11.2201L9.78 9.78008L11.22 9.30008C13.86 8.42008 14.4133 7.30675 14.4133 6.52008C14.4133 5.74008 13.86 4.62008 11.22 3.73341L5.56 1.84674C4.14666 1.37341 2.96666 1.51341 2.24 2.23341C1.51333 2.95341 1.37333 4.14008 1.84666 5.55341L3.73333 11.2134C4.62 13.8667 5.73333 14.4201 6.52 14.4201ZM10.9067 4.68675C12.76 5.30675 13.42 6.04008 13.42 6.52008C13.42 7.00008 12.76 7.73341 10.9067 8.34675L9.22666 8.90675C9.08 8.95341 8.96 9.07341 8.91333 9.22008L8.35333 10.9001C7.74 12.7534 7 13.4134 6.52 13.4134C6.04 13.4134 5.30666 12.7534 4.68666 10.9001L2.8 5.24008C2.46 4.21341 2.52 3.37341 2.95333 2.94008C3.38666 2.50674 4.22666 2.45341 5.24666 2.79341L10.9067 4.68675Z" fill="white"/>
<path d="M9.25997 9.6001C9.38663 9.6001 9.5133 9.55344 9.6133 9.45344C9.80663 9.2601 9.80663 8.9401 9.6133 8.74677L7.22663 6.35344C7.0333 6.1601 6.7133 6.1601 6.51997 6.35344C6.32663 6.54677 6.32663 6.86677 6.51997 7.0601L8.90663 9.45344C8.99997 9.55344 9.1333 9.6001 9.25997 9.6001Z" fill="white"/>
</svg>
