<svg width="16" height="16" viewBox="0 0 16 16" fill="none" xmlns="http://www.w3.org/2000/svg">
<path d="M11.4104 3.2665C11.4104 3.27275 11.4104 3.27275 11.4104 3.279C11.2542 3.27275 11.0979 3.2665 10.9292 3.2665H6.1167L6.78545 2.604C7.39795 1.98525 8.07295 1.4165 8.8542 1.4165C9.6417 1.4165 10.3167 1.98525 10.9292 2.604L11.2792 2.954C11.3667 3.03525 11.4104 3.14775 11.4104 3.2665Z" fill="#8A74F9"/>
<path d="M13.6917 8.39775C13.9355 8.39775 14.1292 8.19775 14.1292 7.94775V7.39775C14.1292 4.9415 13.3792 4.19775 10.9292 4.19775H6.99172H5.40422C2.95422 4.19775 2.20422 4.94775 2.20422 7.39775V7.6665C2.20422 7.9165 2.39797 8.11025 2.64172 8.11025C3.16672 8.11025 3.58547 8.53525 3.58547 9.054C3.58547 9.57275 3.16672 10.004 2.64172 10.004C2.39797 10.004 2.20422 10.1978 2.20422 10.4478V10.7165C2.20422 13.1728 2.95422 13.9165 5.40422 13.9165H6.98547H10.923C13.373 13.9165 14.123 13.1665 14.123 10.7165C14.123 10.4728 13.9292 10.2728 13.6855 10.2728C13.1605 10.2728 12.7417 9.854 12.7417 9.33525C12.748 8.8165 13.1667 8.39775 13.6917 8.39775ZM7.42922 11.954C7.42922 12.1978 7.22922 12.3978 6.98547 12.3978C6.74172 12.3978 6.54172 12.1978 6.54172 11.954V10.279C6.54172 10.0353 6.74172 9.83525 6.98547 9.83525C7.22922 9.83525 7.42922 10.0353 7.42922 10.279V11.954ZM7.42922 7.83525C7.42922 8.079 7.22922 8.279 6.98547 8.279C6.74172 8.279 6.54172 8.079 6.54172 7.83525V6.16025C6.54172 5.9165 6.74172 5.7165 6.98547 5.7165C7.22922 5.7165 7.42922 5.9165 7.42922 6.16025V7.83525Z" fill="#8A74F9"/>
</svg>
