<svg width="22" height="22" viewBox="0 0 22 22" fill="none" xmlns="http://www.w3.org/2000/svg">
<path d="M19.25 6.16931C19.2316 6.16931 19.2041 6.16931 19.1767 6.16931C14.3275 5.68347 9.48748 5.50014 4.69332 5.98597L2.82332 6.16931C2.43832 6.20597 2.09915 5.93097 2.06248 5.54597C2.02582 5.16097 2.30082 4.83097 2.67665 4.79431L4.54665 4.61097C9.42332 4.11597 14.3642 4.30847 19.3141 4.79431C19.69 4.83097 19.965 5.17014 19.9283 5.54597C19.9008 5.90347 19.5983 6.16931 19.25 6.16931Z" fill="white"/>
<path d="M7.7917 5.24343C7.75503 5.24343 7.71836 5.24343 7.67253 5.23427C7.30586 5.1701 7.0492 4.8126 7.11336 4.44593L7.31503 3.2451C7.4617 2.3651 7.66336 1.14594 9.7992 1.14594H12.2009C14.3459 1.14594 14.5475 2.41093 14.685 3.25427L14.8867 4.44593C14.9509 4.82177 14.6942 5.17927 14.3275 5.23427C13.9517 5.29843 13.5942 5.04177 13.5392 4.6751L13.3375 3.48343C13.2092 2.68593 13.1817 2.5301 12.21 2.5301H9.80836C8.8367 2.5301 8.81836 2.65843 8.68086 3.47427L8.47003 4.66594C8.41503 5.0051 8.1217 5.24343 7.7917 5.24343Z" fill="white"/>
<path d="M13.9424 20.8543H8.05745C4.85828 20.8543 4.72995 19.0851 4.62911 17.6551L4.03328 8.4243C4.00578 8.04846 4.29911 7.71846 4.67495 7.69096C5.05995 7.67263 5.38078 7.9568 5.40828 8.33263L6.00411 17.5635C6.10495 18.9568 6.14161 19.4793 8.05745 19.4793H13.9424C15.8674 19.4793 15.9041 18.9568 15.9958 17.5635L16.5916 8.33263C16.6191 7.9568 16.9491 7.67263 17.3249 7.69096C17.7008 7.71846 17.9941 8.0393 17.9666 8.4243L17.3708 17.6551C17.2699 19.0851 17.1416 20.8543 13.9424 20.8543Z" fill="white"/>
<path d="M12.5216 15.8126H9.46912C9.09328 15.8126 8.78162 15.501 8.78162 15.1251C8.78162 14.7493 9.09328 14.4376 9.46912 14.4376H12.5216C12.8974 14.4376 13.2091 14.7493 13.2091 15.1251C13.2091 15.501 12.8974 15.8126 12.5216 15.8126Z" fill="white"/>
<path d="M13.2917 12.1459H8.70837C8.33254 12.1459 8.02087 11.8343 8.02087 11.4584C8.02087 11.0826 8.33254 10.7709 8.70837 10.7709H13.2917C13.6675 10.7709 13.9792 11.0826 13.9792 11.4584C13.9792 11.8343 13.6675 12.1459 13.2917 12.1459Z" fill="white"/>
</svg>
