<svg width="31" height="31" viewBox="0 0 31 31" fill="none" xmlns="http://www.w3.org/2000/svg">
<rect x="0.329834" y="0.875" width="29.8768" height="29.8768" rx="14.9384" fill="#898E95"/>
<path d="M7.80256 11.2124H9.67576L12.1844 17.3353H12.2834L14.792 11.2124H16.6652V19.6624H15.1963V13.8571H15.1179L12.7826 19.6376H11.6851L9.34981 13.8447H9.27142V19.6624H7.80256V11.2124ZM20.0897 19.7903C19.6881 19.7903 19.3264 19.7188 19.0046 19.5757C18.6855 19.4299 18.4325 19.2154 18.2454 18.9321C18.0611 18.6488 17.969 18.2994 17.969 17.8841C17.969 17.5265 18.035 17.2308 18.167 16.997C18.2991 16.7632 18.4792 16.5761 18.7075 16.4359C18.9358 16.2956 19.193 16.1897 19.4791 16.1182C19.7679 16.0439 20.0664 15.9903 20.3744 15.9572C20.7458 15.9187 21.047 15.8844 21.278 15.8541C21.5091 15.8211 21.6769 15.7716 21.7814 15.7056C21.8887 15.6368 21.9423 15.5309 21.9423 15.3879V15.3631C21.9423 15.0523 21.8502 14.8116 21.6659 14.6411C21.4816 14.4705 21.2161 14.3852 20.8696 14.3852C20.5037 14.3852 20.2135 14.465 19.999 14.6246C19.7872 14.7841 19.6441 14.9725 19.5699 15.1898L18.1753 14.9918C18.2853 14.6067 18.4669 14.2848 18.7199 14.0263C18.973 13.765 19.2824 13.5697 19.6483 13.4404C20.0141 13.3084 20.4184 13.2423 20.8613 13.2423C21.1666 13.2423 21.4706 13.2781 21.7731 13.3496C22.0757 13.4211 22.3522 13.5394 22.6025 13.7045C22.8528 13.8667 23.0536 14.0882 23.2049 14.3687C23.3589 14.6493 23.4359 15 23.4359 15.4209V19.6624H22.0001V18.7918H21.9506C21.8598 18.9678 21.7319 19.1329 21.5668 19.2869C21.4046 19.4382 21.1996 19.5606 20.9521 19.6541C20.7073 19.7449 20.4198 19.7903 20.0897 19.7903ZM20.4776 18.6928C20.7774 18.6928 21.0373 18.6336 21.2574 18.5154C21.4775 18.3943 21.6466 18.2348 21.7649 18.0367C21.8859 17.8387 21.9464 17.6228 21.9464 17.389V16.6422C21.8997 16.6807 21.8199 16.7164 21.7071 16.7494C21.5971 16.7824 21.4733 16.8113 21.3358 16.8361C21.1983 16.8608 21.0621 16.8828 20.9273 16.9021C20.7925 16.9213 20.6756 16.9379 20.5766 16.9516C20.3538 16.9819 20.1544 17.0314 19.9783 17.1001C19.8023 17.1689 19.6634 17.2652 19.5616 17.389C19.4598 17.51 19.409 17.6668 19.409 17.8593C19.409 18.1344 19.5094 18.3421 19.7102 18.4823C19.911 18.6226 20.1668 18.6928 20.4776 18.6928Z" fill="white"/>
</svg>
